# xmcd
#
# Track frame offsets: 
#        150
#        16086
#        35583
#        45682
#        55128
#        69662
#        82554
#        97626
#        110451
#        123689
#        138473
#        149657
#        164709
#        181470
#        185722
#        213389
#        236669
#        261417
#        275442
#
# Disc length: 3821 seconds
#
# Revision: 13
# Processed by: cddbd v1.5.2PL0 Copyright (c) Steve Scherf et al.
# Submitted via: ExactAudioCopy v0.95b4
#
DISCID=1a0eeb13
DTITLE=Fleetwood Mac - The Complete Blue Horizon Sessions 1967-1969 [D
DTITLE=isc 1]
DYEAR=1999
DGENRE=Blues
TTITLE0=My Heart Beats Like a Hammer (Take 2)
TTITLE1=Merry Go Round (Take 2)
TTITLE2=Long Grey Mare
TTITLE3=Hellhound On My Trail (Take 1)
TTITLE4=Shake Your Moneymaker
TTITLE5=Looking for Somebody
TTITLE6=No Place to Go
TTITLE7=My Baby's Good to Me
TTITLE8=I Loved Another Woman
TTITLE9=Cold Black Night
TTITLE10=The World Keep On Turning
TTITLE11=Got to Move
TTITLE12=My Heart Beat Like a Hammer (Take 1)
TTITLE13=Merry Go Round (Take 1)
TTITLE14=I Loved Another Woman (Take 1, Take 2, Take 3, Take 4)
TTITLE15=I Loved Another Woman (Take 5, Take 6)
TTITLE16=Cold Black Night
TTITLE17=You're So Evil
TTITLE18=I'm Coming Home
EXTD=
EXTT0=
EXTT1=
EXTT2=
EXTT3=
EXTT4=
EXTT5=
EXTT6=
EXTT7=
EXTT8=
EXTT9=
EXTT10=
EXTT11=
EXTT12=
EXTT13=
EXTT14=
EXTT15=
EXTT16=
EXTT17=
EXTT18=
PLAYORDER=
